<?xml version="1.0" encoding="UTF-8" standalone="no"?><!DOCTYPE svg PUBLIC "-//W3C//DTD SVG 1.1//EN" "http://www.w3.org/Graphics/SVG/1.1/DTD/svg11.dtd"><svg width="100%" height="100%" viewBox="0 0 4000 4000" version="1.1" xmlns="http://www.w3.org/2000/svg" xmlns:xlink="http://www.w3.org/1999/xlink" xml:space="preserve" xmlns:serif="http://www.serif.com/" style="fill-rule:evenodd;clip-rule:evenodd;stroke-linecap:round;stroke-linejoin:round;stroke-miterlimit:1.5;"><rect x="0" y="0" width="4000" height="4000" style="fill:#43464c;"/><g><rect x="1043.8" y="1421.52" width="1897.73" height="1892.16" style="fill:#5165f6;stroke:#000;stroke-width:166.67px;"/><path d="M1402.43,983.75c141.777,-160.537 359.808,-263.447 604.146,-263.447c241.349,0 457.031,100.408 598.919,257.595c68.986,-22.707 142.652,-34.987 219.164,-34.987c387.01,-0 701.213,314.203 701.213,701.213c0,387.011 -314.203,701.214 -701.213,701.214c-222.647,-0 -421.197,-103.992 -549.7,-266.028c-83.598,28.074 -174.029,43.42 -268.383,43.42c-100.971,0 -197.45,-17.574 -285.867,-49.512c-128.313,165.509 -329.043,272.12 -554.476,272.12c-387.011,-0 -701.214,-314.203 -701.214,-701.214c0,-387.01 314.203,-701.213 701.214,-701.213c82.859,-0 162.38,14.402 236.197,40.839Z" style="fill:#5165f6;stroke:#000;stroke-width:166.67px;"/></g></svg>