<?xml version="1.0" encoding="UTF-8" standalone="no"?><!DOCTYPE svg PUBLIC "-//W3C//DTD SVG 1.1//EN" "http://www.w3.org/Graphics/SVG/1.1/DTD/svg11.dtd"><svg width="100%" height="100%" viewBox="0 0 4000 4000" version="1.1" xmlns="http://www.w3.org/2000/svg" xmlns:xlink="http://www.w3.org/1999/xlink" xml:space="preserve" xmlns:serif="http://www.serif.com/" style="fill-rule:evenodd;clip-rule:evenodd;stroke-linejoin:round;stroke-miterlimit:2;"><circle cx="2000" cy="2000" r="2000" style="fill:#36393f;"/><path d="M889.973,889.973l2220.05,0c67.66,0 123.336,55.676 123.336,123.336l0,1973.38c0,67.66 -55.676,123.336 -123.336,123.336l-2220.05,-0c-67.66,-0 -123.336,-55.676 -123.336,-123.336l-0,-1973.38c-0,-67.66 55.676,-123.336 123.336,-123.336Zm2096.72,863.354l-1973.38,0l0,1110.03l1973.38,0l-0,-1110.03Zm-1850.05,-493.345l-0,246.673l246.672,-0l0,-246.673l-246.672,0Zm493.345,0l0,246.673l246.673,-0l-0,-246.673l-246.673,0Z" style="fill:#5165f6;fill-rule:nonzero;"/></svg>