<?xml version="1.0" encoding="UTF-8" standalone="no"?><!DOCTYPE svg PUBLIC "-//W3C//DTD SVG 1.1//EN" "http://www.w3.org/Graphics/SVG/1.1/DTD/svg11.dtd"><svg width="100%" height="100%" viewBox="0 0 4000 4000" version="1.1" xmlns="http://www.w3.org/2000/svg" xmlns:xlink="http://www.w3.org/1999/xlink" xml:space="preserve" xmlns:serif="http://www.serif.com/" style="fill-rule:evenodd;clip-rule:evenodd;stroke-linejoin:round;stroke-miterlimit:2;"><circle cx="2000" cy="2000" r="2000" style="fill:#36393f;"/><path d="M2000,3336.06c-737.905,0 -1336.06,-598.154 -1336.06,-1336.06c-0,-737.905 598.154,-1336.06 1336.06,-1336.06c737.905,-0 1336.06,598.154 1336.06,1336.06c0,737.905 -598.154,1336.06 -1336.06,1336.06Zm-467.621,-1068.85l0,267.212l334.015,-0l0,267.211l267.212,0l-0,-267.211l133.606,-0c183.235,-0 334.015,-150.78 334.015,-334.015c-0,-183.235 -150.78,-334.015 -334.015,-334.015l-534.424,0c-36.647,0 -66.803,-30.156 -66.803,-66.803c0,-36.647 30.156,-66.803 66.803,-66.803l734.833,0l-0,-267.212l-334.015,0l-0,-267.211l-267.212,-0l0,267.211l-133.606,0c-183.235,0 -334.015,150.78 -334.015,334.015c0,183.235 150.78,334.015 334.015,334.015l534.424,-0c36.647,-0 66.803,30.156 66.803,66.803c-0,36.647 -30.156,66.803 -66.803,66.803l-734.833,-0Z" style="fill:#5165f6;fill-rule:nonzero;"/></svg>