<?xml version="1.0" encoding="UTF-8" standalone="no"?><!DOCTYPE svg PUBLIC "-//W3C//DTD SVG 1.1//EN" "http://www.w3.org/Graphics/SVG/1.1/DTD/svg11.dtd"><svg width="100%" height="100%" viewBox="0 0 4000 4000" version="1.1" xmlns="http://www.w3.org/2000/svg" xmlns:xlink="http://www.w3.org/1999/xlink" xml:space="preserve" xmlns:serif="http://www.serif.com/" style="fill-rule:evenodd;clip-rule:evenodd;stroke-linejoin:round;stroke-miterlimit:2;"><circle cx="2000" cy="2000" r="2000" style="fill:#36393f;"/><path d="M2403.31,947.873l384.738,666.431l410.139,0l-0,239.637l-139.829,0l-90.702,1088.31c-5.143,61.748 -57.378,109.84 -119.34,109.874l-1696.63,-0c-61.962,-0.034 -114.197,-48.126 -119.34,-109.874l-90.822,-1088.31l-139.709,0l0,-239.637l410.019,0l384.858,-666.431l207.525,119.819l-315.602,546.612l1022.65,0l-315.482,-546.612l207.525,-119.819Zm-283.49,1145.7l-239.638,0l0,479.275l239.638,-0l-0,-479.275Zm-479.275,0l-239.637,0l0,479.275l239.637,-0l0,-479.275Zm958.549,0l-239.637,0l-0,479.275l239.637,-0l-0,-479.275Z" style="fill:#5165f6;fill-rule:nonzero;"/></svg>