<?xml version="1.0" encoding="UTF-8" standalone="no"?><!DOCTYPE svg PUBLIC "-//W3C//DTD SVG 1.1//EN" "http://www.w3.org/Graphics/SVG/1.1/DTD/svg11.dtd"><svg width="100%" height="100%" viewBox="0 0 4000 4000" version="1.1" xmlns="http://www.w3.org/2000/svg" xmlns:xlink="http://www.w3.org/1999/xlink" xml:space="preserve" xmlns:serif="http://www.serif.com/" style="fill-rule:evenodd;clip-rule:evenodd;stroke-linejoin:round;stroke-miterlimit:2;"><circle cx="2000" cy="2000" r="2000" style="fill:#36393f;"/><path d="M3198.19,1760.24l-0,1198.31c-0,65.73 -54.088,119.818 -119.819,119.818l-958.548,0l-0,-1318.12l1078.37,0Zm-1318.01,718.911l0,599.213l-958.548,0c-65.731,0 -119.819,-54.088 -119.819,-119.818l0,-479.395l1078.37,0Zm0,-1557.52l0,1317.88l-1078.37,0l0,-1198.07c0,-65.73 54.088,-119.818 119.819,-119.818l958.548,-0Zm1198.19,-0c65.731,-0 119.819,54.088 119.819,119.818l-0,479.155l-1078.37,-0l-0,-598.973l958.548,-0Z" style="fill:#5165f6;fill-rule:nonzero;"/></svg>